<svg xmlns="http://www.w3.org/2000/svg" width="500" height="500" fill="none" viewBox="0 0 500 500"><g clip-path="url(#a)"><mask id="b" width="500" height="500" x="0" y="0" maskUnits="userSpaceOnUse" style="mask-type:luminance"><path fill="#fff" d="M500 0H0v500h500z"/></mask><g mask="url(#b)"><path fill="url(#c)" d="M70 212.2a43 43 0 0 0-6.876-2.2c-4.575-1.075-9.15-2.2-13.775-3.15s-9.2-1.85-13.85-2.65-9.25-1.475-13.925-1.95a8.25 8.25 0 0 0-9.3 7.05 8.25 8.25 0 0 0 7.05 9.3c4.6.8 9.275 1.4 13.95 1.9s9.325.9 14.025 1.175 9.425.5 14.125.725c2.378.128 4.762.044 7.125-.25a28.5 28.5 0 0 0 7.35-1.675c.475-.184.89-.496 1.2-.9a2.724 2.724 0 0 0-.55-3.775 29 29 0 0 0-6.55-3.6"/><path fill="url(#d)" d="M115.001 128.375a2.1 2.1 0 0 0 .15-2.95 114 114 0 0 0-13.05-12.125 711 711 0 0 0-13.85-10.8c-4.65-3.6-9.376-7.025-14.1-10.5a359 359 0 0 0-14.3-10l-.65-.4a9.627 9.627 0 0 0-13.272 3.517 9.623 9.623 0 0 0 3.746 13.208c5 2.9 10.15 5.75 15.35 8.425s10.35 5.45 15.6 8.05 10.475 5.2 15.8 7.7a117 117 0 0 0 16.601 6.4 2.2 2.2 0 0 0 1.975-.525"/><path fill="url(#e)" d="M169.325 41.05c2.675 4.425 5.475 8.775 8.3 13.125a56.5 56.5 0 0 0 10.775 11.9 2.9 2.9 0 0 0 1.825.6 2.8 2.8 0 0 0 2.725-2.875A55.4 55.4 0 0 0 190 48.025c-1.75-4.875-3.55-9.75-5.475-14.55A280 280 0 0 0 171.775 5.3a9.625 9.625 0 0 0-17.2 8.6 280 280 0 0 0 14.75 27.15"/><path fill="url(#f)" d="M302.8 66.075a147 147 0 0 0 9.775-12.5c3.025-4.25 5.875-8.6 8.65-12.975a479 479 0 0 0 8.075-13.225c2.625-4.45 5-8.975 7.5-13.575a9.62 9.62 0 0 0 .517-7.35 9.628 9.628 0 0 0-17.742-1.25c-2.3 4.625-4.35 9.35-6.375 14.1s-3.875 9.575-5.675 14.425-3.6 9.725-5.15 14.7a145 145 0 0 0-4 15.275c-.11.452-.09.926.057 1.367.145.442.41.834.768 1.133a2.495 2.495 0 0 0 2.797.47c.305-.142.578-.345.803-.595"/><path fill="url(#g)" d="M434.525 95.2a9.634 9.634 0 0 0 1.237-13.562A9.63 9.63 0 0 0 422.2 80.4c-4.1 3.425-8.175 6.95-12.175 10.525s-7.95 7.25-11.875 10.95-7.825 7.5-11.65 11.2a97.3 97.3 0 0 0-10.725 12.5 2.16 2.16 0 0 0-.363.945c-.042.339-.005.684.113 1.005a2.123 2.123 0 0 0 2.7 1.25 97.6 97.6 0 0 0 14.825-7.075 701 701 0 0 0 13.85-8.35c4.575-2.825 9.15-5.7 13.65-8.625q6.75-4.388 13.35-9z"/><path fill="url(#h)" d="M487.048 202.125a8.24 8.24 0 0 0-7.283-5.576 8.3 8.3 0 0 0-3.192.426c-4.7 1.625-9.325 3.45-13.925 5.375s-9.15 3.9-13.675 6-9.025 4.275-13.525 6.45a47.6 47.6 0 0 0-6.55 3.775 32.4 32.4 0 0 0-6.025 5 2.5 2.5 0 0 0-.7 1.55 2.72 2.72 0 0 0 .61 2.034c.232.281.52.511.845.677a2.7 2.7 0 0 0 1.045.289c2.632.249 5.285.182 7.9-.2a51 51 0 0 0 7.5-1.55c4.8-1.375 9.625-2.7 14.375-4.175s9.5-3 14.2-4.625 9.2-3.25 13.85-5.075a8.25 8.25 0 0 0 4.337-4.283 8.24 8.24 0 0 0 .213-6.092"/><path fill="url(#i)" d="M334.647 114.025a150 150 0 0 0-21.125-11.4 168 168 0 0 0-22.5-7.775 186 186 0 0 0-23.2-4.35c-3.875-.35-7.775-.85-11.65-.95l-5.825-.25h-6.049a154.7 154.7 0 0 0-47.05 8.7 150.4 150.4 0 0 0-42.25 23.075 131.1 131.1 0 0 0-32.025 36.425 129 129 0 0 0-10.2 22.1 142.6 142.6 0 0 0-5.725 23.4 147.6 147.6 0 0 0 .45 47.25 129 129 0 0 0 16.725 43.85 136.6 136.6 0 0 0 30 34.475 128.4 128.4 0 0 0 39.175 22.15 96.45 96.45 0 0 0 41.6 4.275 87.8 87.8 0 0 0 18.099-3.575 99.6 99.6 0 0 0 31.05-17.5 115 115 0 0 0 23.85-26.75A94.1 94.1 0 0 0 321.673 273a69.7 69.7 0 0 0 .749-19.25 62.5 62.5 0 0 0-5-19.025 65.7 65.7 0 0 0-10.6-16.5 44.2 44.2 0 0 0-17.3-12.35 37.23 37.23 0 0 0-21.775-1.325 49.5 49.5 0 0 0-15.7 6.975 55.4 55.4 0 0 0-13.399-11.2 37.5 37.5 0 0 0-9.525-3.875 42.7 42.7 0 0 0-10-1.45 40.35 40.35 0 0 0-19.675 4.325 36 36 0 0 0-14.85 13.9 36.5 36.5 0 0 0-5 19.425 46.2 46.2 0 0 0 4.525 18.575 53.6 53.6 0 0 0 10.925 15 103.6 103.6 0 0 0 13.675 10.975c4.7 3.225 9.475 6.175 13.875 9.425a42 42 0 0 1 11.3 11.425 21.9 21.9 0 0 1 2.825 7.5 31 31 0 0 1 0 8.325 28 28 0 0 0 1.325-8.45 23.8 23.8 0 0 0-1.8-8.6 42 42 0 0 0-10.5-14.025c-8.35-7.975-17.5-14.525-24.275-22.5a43.3 43.3 0 0 1-7.7-13.05 37.4 37.4 0 0 1-2.275-14.25 26 26 0 0 1 4.35-13 24.5 24.5 0 0 1 9.85-8.4 28.4 28.4 0 0 1 13-2.5 29 29 0 0 1 12.775 3.575 48 48 0 0 1 9.7 7.9 65 65 0 0 0-5 6 54.2 54.2 0 0 0-8.825 17.35 27.5 27.5 0 0 0-.9 11.1 17.8 17.8 0 0 0 2.1 6.225 16.3 16.3 0 0 0 4.575 5 21.07 21.07 0 0 0 11.2 4.1 19.28 19.28 0 0 0 11.799-3.425 24.7 24.7 0 0 0 7.5-8.425 28.9 28.9 0 0 0 3.35-10.225c.47-3.55.31-7.156-.475-10.65a50.6 50.6 0 0 0-3.125-9.3c-.55-1.2-1.15-2.5-1.775-3.55a31.9 31.9 0 0 1 9.675-3.1 20.46 20.46 0 0 1 11.35 1.525 26.5 26.5 0 0 1 9.525 7.5 53.6 53.6 0 0 1 7.5 11.775 52.8 52.8 0 0 1 4.5 27.725 81.2 81.2 0 0 1-9.275 28.85c-18.375 35.475-59.674 55.2-95.849 37.65a108.6 108.6 0 0 1-31.15-23.25 123.5 123.5 0 0 1-21.55-31.575 102.5 102.5 0 0 1-9.25-35.725 118 118 0 0 1 3.85-36.15 115 115 0 0 1 14.5-32.5 109.8 109.8 0 0 1 23.45-26.2 112.8 112.8 0 0 1 31.15-17.5 116.8 116.8 0 0 1 35.3-6.85h4.5l4.674.125c3.125 0 6.2.375 9.325.55 6.123.641 12.2 1.651 18.2 3.025a105.37 105.37 0 0 1 82.8 105.175 118.95 118.95 0 0 1-23.5 69.525 143.7 143.7 0 0 1-26.325 27.15 176 176 0 0 1-15.775 11.25 172 172 0 0 1-16.975 9.425 345 345 0 0 1-38.124 14.325c-13.325 4.5-27.05 8.75-40.725 15.775a60.45 60.45 0 0 0-19.8 15 30.56 30.56 0 0 0-6.4 13.15 23.3 23.3 0 0 0-.275 8.5 20.85 20.85 0 0 0 3.35 8.35 27.3 27.3 0 0 0 6.875 6.725 25.43 25.43 0 0 0 .925 21.925 43.5 43.5 0 0 0 7.35 10 49 49 0 0 0 4.4 4.1c1.1.875 2.275 1.65 3.45 2.5a28.7 28.7 0 0 0-2.925 5 18.35 18.35 0 0 0-1.2 12.075 19.2 19.2 0 0 0 2.5 5.275 22 22 0 0 0 3.625 4.125 20.2 20.2 0 0 1-2.15-9.775 13.98 13.98 0 0 1 3.4-8.075 22.5 22.5 0 0 1 4.5-4.175 80.4 80.4 0 0 0 14.7 5.675 109 109 0 0 0 22.1 3.675c7.572.558 15.179.23 22.674-.975a64 64 0 0 0 5.925-1.35 29.8 29.8 0 0 0 6.575-2.725 14 14 0 0 0 4.375-3.85 10.5 10.5 0 0 0 1.975-5c.108-1.13.023-2.272-.25-3.375a4.3 4.3 0 0 0-.2-.75l-.15-.475a24 24 0 0 0-3.7-7.15 27.87 27.87 0 0 0-11.95-8.575 42.5 42.5 0 0 0-12.5-2.675 70 70 0 0 0-23.199 2.325 77 77 0 0 0-20.975 8.95 61 61 0 0 0-4.775 3.35l-.5-.3a48 48 0 0 1-6.85-5.95 27 27 0 0 1-4.65-7.15 12.02 12.02 0 0 1 0-10.475c1.2.4 2.5.775 3.625 1.125a122.4 122.4 0 0 0 22.5 3.95 162.6 162.6 0 0 0 44.424-2.275 86.7 86.7 0 0 0 22.8-7.275 33 33 0 0 0 6.4-4.225 20 20 0 0 0 1.725-1.65c.645-.67 1.24-1.39 1.775-2.15a17 17 0 0 0 1.675-2.8 15.9 15.9 0 0 0 1.475-6.85q.102-1.25 0-2.5a18.4 18.4 0 0 0-1.425-5.4 20.44 20.44 0 0 0-6.4-8.175 27.5 27.5 0 0 0-7.2-3.925 41 41 0 0 0-6.65-1.85 66 66 0 0 0-12.275-1.125 113 113 0 0 0-22.724 2.325 130 130 0 0 0-42 15.75 73 73 0 0 0-9.65 7.1 9.8 9.8 0 0 1-2.85-2.5c-.575-1.075-.675-1.425-.3-3.3a13.4 13.4 0 0 1 2.925-5.7 41.6 41.6 0 0 1 14.25-9.1A292 292 0 0 1 250.472 389a373 373 0 0 0 41.75-12.325 181 181 0 0 0 20.5-9.65 173 173 0 0 0 19.2-12.1 164.6 164.6 0 0 0 33.075-31.8 152.8 152.8 0 0 0 22.75-40.6 149.4 149.4 0 0 0 9.201-45.95 140.75 140.75 0 0 0-27.251-89.675 134.3 134.3 0 0 0-35.05-32.875M254.122 246.9a13.6 13.6 0 0 1-1.477 5.555 13.6 13.6 0 0 1-3.647 4.445 6.68 6.68 0 0 1-4.323 1.238 6.7 6.7 0 0 1-4.127-1.788 4.05 4.05 0 0 1-1.4-2.95 14 14 0 0 1 .85-5.625 36.2 36.2 0 0 1 7.5-11.975q1.35-1.537 2.849-2.925c.25.45.525.9.75 1.35a35.3 35.3 0 0 1 2.5 6.575c.548 1.984.725 4.052.525 6.1m20.525 221.725c.175-.075.35-.25 0 0m-15.55-2.175a34.3 34.3 0 0 1 7.975 1.9 14 14 0 0 1 3.625 2.025c-1.05.375-2.175.7-3.325 1a88.85 88.85 0 0 1-38.674.5c-1.225-.275-2.5-.6-3.6-.95a81.2 81.2 0 0 1 33.999-4.475m26.325-47.675c0 .3.275.325 0 0m-33.125-2.675a104 104 0 0 1 19.15-.875c2.9.14 5.778.553 8.6 1.225 1.15.273 2.27.65 3.35 1.125a49.4 49.4 0 0 1-8.025 2.925c-2.95.85-6.075 1.6-9.25 2.225a210.4 210.4 0 0 1-39.299 3.7c-3.05 0-6.1 0-9.075-.375a117.8 117.8 0 0 1 34.549-9.95"/></g></g><defs><linearGradient id="c" x1="45.0742" x2="45.0742" y1="-0.725004" y2="434.5" gradientUnits="userSpaceOnUse"><stop stop-color="#FF8A11"/><stop offset="1" stop-color="#E81894"/></linearGradient><linearGradient id="d" x1="80.2505" x2="80.2505" y1="-0.724812" y2="434.5" gradientUnits="userSpaceOnUse"><stop stop-color="#FF8A11"/><stop offset="1" stop-color="#E81894"/></linearGradient><linearGradient id="e" x1="173.3" x2="173.3" y1="-0.724903" y2="434.5" gradientUnits="userSpaceOnUse"><stop stop-color="#FF8A11"/><stop offset="1" stop-color="#E81894"/></linearGradient><linearGradient id="f" x1="317.975" x2="317.975" y1="-0.72506" y2="434.5" gradientUnits="userSpaceOnUse"><stop stop-color="#FF8A11"/><stop offset="1" stop-color="#E81894"/></linearGradient><linearGradient id="g" x1="406.7" x2="406.7" y1="-0.724809" y2="434.5" gradientUnits="userSpaceOnUse"><stop stop-color="#FF8A11"/><stop offset="1" stop-color="#E81894"/></linearGradient><linearGradient id="h" x1="454.823" x2="454.823" y1="-0.725265" y2="434.5" gradientUnits="userSpaceOnUse"><stop stop-color="#FF8A11"/><stop offset="1" stop-color="#E81894"/></linearGradient><linearGradient id="i" x1="251.172" x2="251.172" y1="-0.725015" y2="434.5" gradientUnits="userSpaceOnUse"><stop stop-color="#FF8A11"/><stop offset="1" stop-color="#E81894"/></linearGradient><clipPath id="a"><path fill="#fff" d="M0 0h500v500H0z"/></clipPath></defs></svg>