<svg width="500" height="500" viewBox="0 0 500 500" fill="none" xmlns="http://www.w3.org/2000/svg">
<g clip-path="url(#clip0_55_243)">
<mask id="mask0_55_243" style="mask-type:luminance" maskUnits="userSpaceOnUse" x="0" y="0" width="500" height="500">
<path d="M500 0H0V500H500V0Z" fill="white"/>
</mask>
<g mask="url(#mask0_55_243)">
<path d="M69.9992 212.2C67.773 211.276 65.4732 210.54 63.1242 210C58.5492 208.925 53.9742 207.8 49.3492 206.85C44.7242 205.9 40.1492 205 35.4992 204.2C30.8492 203.4 26.2492 202.725 21.5743 202.25C19.4062 201.951 17.2083 202.527 15.4642 203.849C13.7201 205.171 12.5727 207.132 12.2743 209.3C11.976 211.468 12.5511 213.666 13.8732 215.41C15.1954 217.154 17.1562 218.301 19.3243 218.6C23.9243 219.4 28.5992 220 33.2742 220.5C37.9492 221 42.5992 221.4 47.2992 221.675C51.9992 221.95 56.7242 222.175 61.4242 222.4C63.802 222.528 66.1865 222.444 68.5492 222.15C71.0625 221.919 73.5342 221.356 75.8992 220.475C76.3745 220.291 76.7895 219.979 77.0992 219.575C77.52 218.999 77.698 218.281 77.595 217.575C77.4922 216.869 77.1167 216.232 76.5492 215.8C74.53 214.323 72.3285 213.113 69.9992 212.2Z" fill="url(#paint0_linear_55_243)"/>
<path d="M115.001 128.375C115.409 128.002 115.654 127.483 115.682 126.931C115.71 126.379 115.519 125.838 115.151 125.425C111.123 121.05 106.76 116.996 102.101 113.3C97.517 109.634 92.9005 106.034 88.2505 102.5C83.6005 98.9003 78.8755 95.4753 74.1505 92.0003C69.4255 88.5253 64.6755 85.2003 59.8505 82.0003L59.2005 81.6003C58.101 80.9485 56.8828 80.5225 55.617 80.3465C54.351 80.1708 53.063 80.249 51.8275 80.5763C50.5923 80.9035 49.4343 81.4738 48.4218 82.2533C47.409 83.033 46.5618 84.0063 45.9293 85.117C45.2968 86.2275 44.8918 87.4528 44.738 88.7215C44.584 89.9903 44.6845 91.277 45.0333 92.5065C45.382 93.736 45.972 94.8838 46.769 95.8828C47.566 96.8818 48.554 97.712 49.6755 98.3253C54.6755 101.225 59.8255 104.075 65.0255 106.75C70.2255 109.425 75.3755 112.2 80.6255 114.8C85.8755 117.4 91.1005 120 96.4255 122.5C101.788 125.052 107.338 127.191 113.026 128.9C113.373 128.979 113.734 128.972 114.078 128.881C114.422 128.79 114.738 128.616 115.001 128.375Z" fill="url(#paint1_linear_55_243)"/>
<path d="M169.325 41.05C172 45.475 174.8 49.825 177.625 54.175C180.632 58.634 184.26 62.641 188.4 66.075C188.922 66.4767 189.566 66.6882 190.225 66.675C190.592 66.6655 190.955 66.5832 191.291 66.4335C191.627 66.2837 191.93 66.0692 192.183 65.8022C192.436 65.5352 192.634 65.221 192.766 64.8775C192.897 64.534 192.96 64.1677 192.95 63.8C192.738 58.4265 191.744 53.1122 190 48.025C188.25 43.15 186.45 38.275 184.525 33.475C180.797 23.8557 176.541 14.4497 171.775 5.3001C170.568 3.13702 168.573 1.52265 166.206 0.792832C163.839 0.0630136 161.281 0.273947 159.066 1.38175C156.85 2.48955 155.147 4.40892 154.31 6.74055C153.474 9.07217 153.569 11.6365 154.575 13.9001C158.988 23.2147 163.912 32.2785 169.325 41.05Z" fill="url(#paint2_linear_55_243)"/>
<path d="M302.8 66.075C306.282 62.0877 309.545 57.915 312.575 53.575C315.6 49.325 318.45 44.975 321.225 40.6C324 36.225 326.675 31.825 329.3 27.375C331.925 22.9249 334.3 18.4 336.8 13.7999C337.94 11.5158 338.127 8.8721 337.317 6.45055C336.51 4.02898 334.772 2.02787 332.487 0.88744C330.202 -0.25299 327.56 -0.439327 325.137 0.369423C322.717 1.17818 320.715 2.91577 319.575 5.19995C317.275 9.82495 315.225 14.5499 313.2 19.2999C311.175 24.0499 309.325 28.875 307.525 33.725C305.725 38.575 303.925 43.45 302.375 48.425C300.765 53.4405 299.43 58.5397 298.375 63.7C298.265 64.1523 298.285 64.6257 298.432 65.0672C298.577 65.509 298.842 65.9012 299.2 66.2C299.442 66.434 299.727 66.617 300.042 66.7378C300.355 66.8585 300.69 66.9147 301.027 66.9032C301.362 66.8915 301.692 66.8122 301.997 66.6698C302.302 66.5275 302.575 66.3252 302.8 66.075Z" fill="url(#paint3_linear_55_243)"/>
<path d="M434.525 95.2003C435.495 94.3911 436.297 93.3981 436.887 92.2786C437.475 91.1591 437.837 89.9346 437.952 88.6753C438.067 87.4158 437.932 86.146 437.557 84.9385C437.18 83.731 436.57 82.6096 435.762 81.6378C434.952 80.6658 433.96 79.863 432.84 79.275C431.72 78.6868 430.495 78.3251 429.237 78.2101C427.977 78.0951 426.707 78.2293 425.5 78.6053C424.292 78.9811 423.17 79.5908 422.2 80.4003C418.1 83.8253 414.025 87.3503 410.025 90.9253C406.025 94.5003 402.075 98.1753 398.15 101.875C394.225 105.575 390.325 109.375 386.5 113.075C382.577 116.932 378.99 121.114 375.775 125.575C375.58 125.857 375.457 126.181 375.412 126.52C375.37 126.859 375.407 127.204 375.525 127.525C375.72 128.046 376.115 128.468 376.617 128.702C377.122 128.935 377.7 128.962 378.225 128.775C383.355 126.838 388.315 124.471 393.05 121.7C397.7 118.975 402.325 116.175 406.9 113.35C411.475 110.525 416.05 107.65 420.55 104.725C425.05 101.8 429.5 98.8003 433.9 95.7253L434.525 95.2003Z" fill="url(#paint4_linear_55_243)"/>
<path d="M487.048 202.125C486.7 201.098 486.15 200.151 485.435 199.337C484.72 198.522 483.85 197.857 482.878 197.379C481.905 196.901 480.848 196.619 479.765 196.549C478.685 196.48 477.6 196.625 476.573 196.975C471.873 198.6 467.248 200.425 462.648 202.35C458.048 204.275 453.498 206.25 448.973 208.35C444.448 210.45 439.948 212.625 435.448 214.8C433.168 215.883 430.978 217.145 428.898 218.575C426.695 219.992 424.673 221.671 422.873 223.575C422.465 223.994 422.218 224.542 422.173 225.125C422.133 225.487 422.165 225.855 422.27 226.204C422.373 226.554 422.548 226.879 422.783 227.159C423.015 227.44 423.303 227.67 423.628 227.836C423.953 228.002 424.31 228.1 424.673 228.125C427.305 228.374 429.958 228.307 432.573 227.925C435.108 227.596 437.615 227.078 440.073 226.375C444.873 225 449.698 223.675 454.448 222.2C459.198 220.725 463.948 219.2 468.648 217.575C473.348 215.95 477.848 214.325 482.498 212.5C484.438 211.678 485.99 210.146 486.835 208.217C487.683 206.288 487.758 204.108 487.048 202.125Z" fill="url(#paint5_linear_55_243)"/>
<path d="M334.647 114.025C327.922 109.666 320.857 105.853 313.522 102.625C306.217 99.5038 298.697 96.9055 291.022 94.85C283.39 92.9093 275.64 91.4565 267.822 90.5C263.947 90.15 260.047 89.65 256.172 89.55L250.347 89.3H244.298C228.258 89.7423 212.385 92.6775 197.248 98C182.017 103.373 167.751 111.164 154.998 121.075C142.15 131.118 131.289 143.472 122.973 157.5C118.884 164.529 115.469 171.928 112.773 179.6C110.208 187.224 108.293 195.052 107.048 203C104.66 218.672 104.812 234.626 107.498 250.25C110.344 265.768 116.013 280.63 124.223 294.1C132.216 307.195 142.358 318.85 154.223 328.575C165.875 338.208 179.137 345.705 193.398 350.725C206.785 355.175 220.986 356.635 234.998 355C241.14 354.448 247.207 353.248 253.097 351.425C264.415 347.505 274.935 341.578 284.147 333.925C293.447 326.31 301.495 317.283 307.997 307.175C314.762 296.795 319.41 285.18 321.673 273C322.812 266.65 323.065 260.17 322.422 253.75C321.77 247.184 320.082 240.763 317.422 234.725C314.735 228.726 311.162 223.164 306.822 218.225C302.147 212.762 296.207 208.523 289.522 205.875C282.56 203.269 274.975 202.807 267.747 204.55C262.147 205.941 256.835 208.301 252.047 211.525C248.201 207.107 243.678 203.327 238.648 200.325C235.666 198.602 232.461 197.298 229.123 196.45C225.859 195.572 222.502 195.086 219.123 195C212.305 194.755 205.535 196.243 199.448 199.325C193.265 202.435 188.109 207.261 184.598 213.225C181.151 219.107 179.419 225.835 179.598 232.65C179.795 239.089 181.336 245.417 184.123 251.225C186.866 256.823 190.563 261.898 195.048 266.225C199.288 270.263 203.863 273.935 208.723 277.2C213.423 280.425 218.198 283.375 222.598 286.625C227.065 289.67 230.902 293.55 233.898 298.05C235.293 300.355 236.251 302.898 236.723 305.55C237.099 308.313 237.099 311.113 236.723 313.875C237.594 311.143 238.041 308.293 238.048 305.425C237.986 302.473 237.376 299.555 236.248 296.825C233.772 291.465 230.194 286.685 225.748 282.8C217.398 274.825 208.248 268.275 201.473 260.3C198.159 256.438 195.552 252.02 193.773 247.25C192.096 242.693 191.323 237.853 191.498 233C191.759 228.356 193.261 223.866 195.848 220C198.319 216.368 201.721 213.466 205.698 211.6C209.774 209.755 214.228 208.899 218.698 209.1C223.175 209.29 227.548 210.513 231.473 212.675C235.038 214.873 238.299 217.529 241.173 220.575C239.387 222.472 237.717 224.476 236.173 226.575C232.208 231.778 229.218 237.656 227.348 243.925C226.294 247.525 225.988 251.303 226.448 255.025C226.756 257.213 227.468 259.323 228.548 261.25C229.707 263.218 231.265 264.923 233.123 266.25C236.384 268.668 240.273 270.09 244.323 270.35C248.525 270.525 252.67 269.323 256.122 266.925C259.237 264.733 261.805 261.848 263.622 258.5C265.37 255.33 266.505 251.863 266.972 248.275C267.442 244.725 267.282 241.119 266.497 237.625C265.76 234.431 264.712 231.317 263.372 228.325C262.822 227.125 262.222 225.825 261.597 224.775C264.637 223.23 267.902 222.184 271.272 221.675C275.125 221.093 279.062 221.622 282.622 223.2C286.335 224.932 289.595 227.499 292.147 230.7C295.15 234.282 297.672 238.24 299.647 242.475C303.622 251.143 305.177 260.723 304.147 270.2C302.895 280.313 299.747 290.1 294.872 299.05C276.497 334.525 235.198 354.25 199.023 336.7C187.326 330.888 176.774 323.01 167.873 313.45C159.094 304.108 151.823 293.455 146.323 281.875C141.104 270.625 137.97 258.52 137.073 246.15C136.482 233.974 137.781 221.779 140.923 210C144.041 198.48 148.933 187.515 155.423 177.5C161.781 167.563 169.699 158.717 178.873 151.3C188.261 143.849 198.776 137.941 210.023 133.8C221.366 129.709 233.273 127.398 245.323 126.95H249.823L254.497 127.075C257.622 127.075 260.697 127.45 263.822 127.625C269.945 128.266 276.022 129.276 282.022 130.65C305.872 135.875 327.165 149.219 342.267 168.402C357.37 187.585 365.342 211.416 364.822 235.825C364.512 260.898 356.288 285.23 341.322 305.35C333.783 315.52 324.93 324.648 314.997 332.5C309.95 336.535 304.682 340.293 299.222 343.75C293.747 347.208 288.08 350.355 282.247 353.175C269.832 358.695 257.102 363.48 244.123 367.5C230.798 372 217.073 376.25 203.398 383.275C195.831 386.85 189.089 391.958 183.598 398.275C180.432 402.075 178.236 406.588 177.198 411.425C176.585 414.218 176.492 417.098 176.923 419.925C177.419 422.92 178.562 425.768 180.273 428.275C182.149 430.905 184.477 433.183 187.148 435C185.655 438.493 184.963 442.273 185.123 446.068C185.283 449.863 186.291 453.573 188.073 456.925C190.032 460.593 192.507 463.96 195.423 466.925C196.804 468.38 198.273 469.75 199.823 471.025C200.923 471.9 202.098 472.675 203.273 473.525C202.132 475.088 201.152 476.763 200.348 478.525C198.59 482.298 198.167 486.555 199.148 490.6C199.708 492.475 200.551 494.255 201.648 495.875C202.679 497.395 203.897 498.783 205.273 500C203.748 496.973 203.008 493.613 203.123 490.225C203.362 487.238 204.553 484.408 206.523 482.15C207.825 480.56 209.339 479.155 211.023 477.975C215.725 480.343 220.649 482.245 225.723 483.65C232.944 485.63 240.35 486.863 247.823 487.325C255.395 487.883 263.002 487.555 270.497 486.35C272.422 486 274.372 485.575 276.422 485C278.715 484.358 280.922 483.443 282.997 482.275C284.71 481.313 286.2 480 287.372 478.425C288.452 476.958 289.132 475.235 289.347 473.425C289.455 472.295 289.37 471.153 289.097 470.05C289.052 469.795 288.987 469.543 288.897 469.3L288.747 468.825C287.925 466.25 286.675 463.833 285.047 461.675C281.905 457.798 277.777 454.838 273.097 453.1C269.09 451.583 264.875 450.683 260.597 450.425C252.79 449.898 244.947 450.683 237.398 452.75C230.001 454.675 222.931 457.693 216.423 461.7C214.798 462.725 213.198 463.85 211.648 465.05L211.148 464.75C208.681 462.988 206.387 460.995 204.298 458.8C202.38 456.678 200.811 454.265 199.648 451.65C198.858 450.018 198.448 448.228 198.448 446.413C198.448 444.598 198.858 442.808 199.648 441.175C200.848 441.575 202.148 441.95 203.273 442.3C210.634 444.315 218.166 445.638 225.773 446.25C240.616 447.53 255.565 446.765 270.197 443.975C278.097 442.615 285.77 440.168 292.997 436.7C295.287 435.545 297.435 434.128 299.397 432.475C300.005 431.958 300.58 431.408 301.122 430.825C301.767 430.155 302.362 429.435 302.897 428.675C303.542 427.798 304.105 426.86 304.572 425.875C305.565 423.73 306.07 421.39 306.047 419.025C306.115 418.193 306.115 417.358 306.047 416.525C305.85 414.663 305.37 412.843 304.622 411.125C303.227 407.895 301.025 405.08 298.222 402.95C296.032 401.29 293.605 399.965 291.022 399.025C288.862 398.223 286.637 397.605 284.372 397.175C280.325 396.418 276.215 396.043 272.097 396.05C264.465 396.055 256.85 396.833 249.373 398.375C234.566 401.153 220.355 406.48 207.373 414.125C203.967 416.223 200.74 418.598 197.723 421.225C196.62 420.585 195.652 419.735 194.873 418.725C194.298 417.65 194.198 417.3 194.573 415.425C195.074 413.318 196.077 411.36 197.498 409.725C201.574 405.748 206.425 402.65 211.748 400.625C224.372 395.86 237.312 391.975 250.472 389C264.617 385.708 278.557 381.593 292.222 376.675C299.252 373.89 306.097 370.668 312.722 367.025C319.38 363.415 325.795 359.375 331.922 354.925C344.377 345.92 355.512 335.218 364.997 323.125C374.61 310.833 382.282 297.14 387.747 282.525C393.212 267.788 396.318 252.28 396.948 236.575C398.375 204.448 388.76 172.801 369.697 146.9C360.085 133.925 348.212 122.788 334.647 114.025ZM254.122 246.9C254.032 248.836 253.527 250.73 252.645 252.455C251.76 254.18 250.517 255.695 248.998 256.9C247.743 257.8 246.215 258.238 244.675 258.138C243.134 258.035 241.676 257.405 240.548 256.35C240.123 255.983 239.779 255.53 239.538 255.023C239.297 254.515 239.164 253.963 239.148 253.4C239.044 251.488 239.333 249.572 239.998 247.775C241.687 243.329 244.236 239.26 247.498 235.8C248.397 234.776 249.348 233.8 250.347 232.875C250.597 233.325 250.872 233.775 251.097 234.225C252.147 236.329 252.985 238.531 253.597 240.8C254.145 242.784 254.322 244.852 254.122 246.9ZM274.647 468.625C274.822 468.55 274.997 468.375 274.647 468.625V468.625ZM259.097 466.45C261.822 466.763 264.5 467.4 267.072 468.35C268.375 468.843 269.597 469.525 270.697 470.375C269.647 470.75 268.522 471.075 267.372 471.375C254.675 474.38 241.47 474.55 228.698 471.875C227.473 471.6 226.198 471.275 225.098 470.925C235.984 467.03 247.575 465.505 259.097 466.45ZM285.422 418.775C285.422 419.075 285.697 419.1 285.422 418.775V418.775ZM252.297 416.1C258.64 415.218 265.052 414.925 271.447 415.225C274.347 415.365 277.225 415.778 280.047 416.45C281.197 416.723 282.317 417.1 283.397 417.575C280.812 418.78 278.127 419.758 275.372 420.5C272.422 421.35 269.297 422.1 266.122 422.725C253.167 425.188 240.01 426.425 226.823 426.425C223.773 426.425 220.723 426.425 217.748 426.05C228.688 420.985 240.34 417.63 252.297 416.1Z" fill="url(#paint6_linear_55_243)"/>
</g>
</g>
<defs>
<linearGradient id="paint0_linear_55_243" x1="45.0742" y1="-0.725004" x2="45.0742" y2="434.5" gradientUnits="userSpaceOnUse">
<stop stop-color="#FF8A11"/>
<stop offset="1" stop-color="#E81894"/>
</linearGradient>
<linearGradient id="paint1_linear_55_243" x1="80.2505" y1="-0.724812" x2="80.2505" y2="434.5" gradientUnits="userSpaceOnUse">
<stop stop-color="#FF8A11"/>
<stop offset="1" stop-color="#E81894"/>
</linearGradient>
<linearGradient id="paint2_linear_55_243" x1="173.3" y1="-0.724903" x2="173.3" y2="434.5" gradientUnits="userSpaceOnUse">
<stop stop-color="#FF8A11"/>
<stop offset="1" stop-color="#E81894"/>
</linearGradient>
<linearGradient id="paint3_linear_55_243" x1="317.975" y1="-0.72506" x2="317.975" y2="434.5" gradientUnits="userSpaceOnUse">
<stop stop-color="#FF8A11"/>
<stop offset="1" stop-color="#E81894"/>
</linearGradient>
<linearGradient id="paint4_linear_55_243" x1="406.7" y1="-0.724809" x2="406.7" y2="434.5" gradientUnits="userSpaceOnUse">
<stop stop-color="#FF8A11"/>
<stop offset="1" stop-color="#E81894"/>
</linearGradient>
<linearGradient id="paint5_linear_55_243" x1="454.823" y1="-0.725265" x2="454.823" y2="434.5" gradientUnits="userSpaceOnUse">
<stop stop-color="#FF8A11"/>
<stop offset="1" stop-color="#E81894"/>
</linearGradient>
<linearGradient id="paint6_linear_55_243" x1="251.172" y1="-0.725015" x2="251.172" y2="434.5" gradientUnits="userSpaceOnUse">
<stop stop-color="#FF8A11"/>
<stop offset="1" stop-color="#E81894"/>
</linearGradient>
<clipPath id="clip0_55_243">
<rect width="500" height="500" fill="white"/>
</clipPath>
</defs>
</svg>
